<?xml version="1.0" encoding="UTF-8"?>
<svg version="1.1" viewBox="0 0 1200 1200" xmlns="http://www.w3.org/2000/svg">
 <g transform="scale(1.8) translate(-250,-265)" fill="#682079">
  <path d="m675 427.69v316.5c-0.011719 16.617-5.543 32.762-15.723 45.895-10.184 13.133-24.438 22.512-40.527 26.668-12.281 3.3203-25.219 3.3203-37.5 0-12.895-3.1055-24.734-9.5742-34.312-18.75-14.246-14.262-22.152-33.656-21.938-53.812v-316.5z"/>
  <path d="m618.75 836.06v60.375c0 6.6992-3.5742 12.887-9.375 16.238-5.8008 3.3477-12.949 3.3477-18.75 0-5.8008-3.3516-9.375-9.5391-9.375-16.238v-60.375c12.375 2.5 25.125 2.5 37.5 0z"/>
  <path d="m530.25 284.81v52.688h51v71.438h37.5v-71.438h51v-52.688z"/>
  <path d="m762.33 400.87c6.8008 0 12.09 1.3867 15.867 4.1562 4.0312 3.2734 6.9297 7.5586 8.6914 12.848l3.4023 16.246 1.5117 86.152c0 12.094 1.5117 22.797 4.5312 32.117 3.2773 10.582 6.1719 18.266 8.6914 23.051 3.2773 5.543 7.8086 10.453 13.605 14.734 4.0273 3.0234 8.3125 5.668 12.844 7.9375-4.7852 1.7617-9.3203 4.4062-13.602 7.9336-4.5352 3.5273-8.9414 8.5664-13.223 15.113-2.5195 4.2852-5.418 11.84-8.6914 22.672-2.7734 8.8164-4.1562 18.895-4.1562 30.23l-1.1367 72.926-1.1328 17.383-4.1562 17.004c-1.7617 4.7852-4.6602 8.9414-8.6914 12.469-3.7773 3.0234-8.5625 4.5312-14.355 4.5312h-21.918v28.34h30.605c14.359 0 26.074-5.4141 35.141-16.246 9.0703-10.832 13.605-25.316 13.605-43.453v-78.973c0-17.633 4.0312-35.52 12.09-53.656 3.0234-6.5508 7.3047-11.84 12.848-15.871 2.2656-1.7617 5.1641-3.1484 8.6914-4.1562 1.2578-.5039 4.6602-1.2578 10.203-2.2656v-26.074c-4.7891-1.0078-8.1875-2.0156-10.203-3.0195-3.5273-1.0078-6.4258-2.7734-8.6914-5.293-5.543-5.0352-9.9492-11.207-13.227-18.516-3.5234-6.8008-5.918-14.734-7.1758-23.805l-5.293-103.91c0-16.625-4.0273-30.48-12.09-41.562-8.0625-11.086-20.406-16.625-37.031-16.625h-29.473v27.582z" />  
  <path d="m461.59 400.87v-27.582h-29.473c-16.629 0-28.969 5.5391-37.031 16.625-8.0625 11.082-12.09 24.938-12.09 41.562l-5.293 103.91c-1.2578 9.0703-3.6523 17.004-7.1797 23.805-3.2734 7.3086-7.6797 13.48-13.223 18.516-2.2695 2.5195-5.1641 4.2852-8.6914 5.293-2.0156 1.0039-5.418 2.0117-10.203 3.0195v26.074c5.543 1.0078 8.9453 1.7617 10.203 2.2656 3.5273 1.0078 6.4219 2.3945 8.6914 4.1562 5.543 4.0312 9.8242 9.3203 12.848 15.871 8.0586 18.137 12.09 36.023 12.09 53.656v78.973c0 18.137 4.5352 32.621 13.602 43.453 9.0703 10.832 20.785 16.246 35.141 16.246h30.609v-28.34h-21.918c-5.793 0-10.578-1.5078-14.359-4.5312-4.0273-3.5273-6.9258-7.6836-8.6875-12.469l-4.1562-17.004-1.1367-17.383-1.1328-72.926c0-11.336-1.3867-21.414-4.1562-30.23-3.2734-10.832-6.1719-18.387-8.6914-22.672-4.2812-6.5469-8.6914-11.586-13.223-15.113-4.2852-3.5273-8.8164-6.1719-13.605-7.9336 4.5352-2.2695 8.8164-4.9141 12.848-7.9375 5.793-4.2812 10.328-9.1914 13.605-14.734 2.5156-4.7852 5.4141-12.469 8.6875-23.051 3.0234-9.3203 4.5352-20.023 4.5352-32.117l1.5117-86.152 3.4023-16.246c1.7617-5.2891 4.6602-9.5742 8.6914-12.848 3.7773-2.7695 9.0664-4.1562 15.867-4.1562z" />  
 </g>
</svg>
